<?xml version="1.0" standalone="no"?>
<!DOCTYPE svg PUBLIC "-//W3C//DTD SVG 20010904//EN"
 "http://www.w3.org/TR/2001/REC-SVG-20010904/DTD/svg10.dtd">
<svg version="1.0" xmlns="http://www.w3.org/2000/svg"
 width="512.000000pt" height="512.000000pt" viewBox="0 0 512.000000 512.000000"
 preserveAspectRatio="xMidYMid meet">
<metadata>
Created by potrace 1.11, written by Peter Selinger 2001-2013
</metadata>
<g transform="translate(0.000000,512.000000) scale(0.100000,-0.100000)"
fill="#000000" stroke="none">
<path d="M3195 3730 c-150 -24 -325 -91 -442 -171 -69 -47 -188 -164 -238
-234 -172 -241 -226 -568 -144 -867 42 -152 151 -331 267 -441 156 -145 391
-249 601 -264 l85 -6 95 -90 c222 -208 373 -281 586 -281 125 0 191 15 296 70
61 32 179 132 179 151 0 4 -22 33 -49 63 l-48 54 -54 -48 c-157 -141 -361
-164 -544 -61 -57 32 -195 141 -195 154 0 3 39 16 86 28 228 59 451 225 572
426 96 159 142 327 142 522 0 149 -12 223 -54 348 -48 139 -113 243 -226 357
-138 140 -281 221 -481 270 -97 24 -336 35 -434 20z m400 -205 c87 -24 210
-86 287 -144 119 -90 218 -236 268 -396 28 -89 39 -294 20 -399 -53 -305 -276
-544 -585 -627 -113 -31 -326 -31 -440 0 -289 77 -508 294 -581 576 -28 108
-26 325 4 429 88 306 325 517 652 580 56 10 316 -2 375 -19z"/>
<path d="M642 2743 l3 -978 693 -3 692 -2 0 90 0 90 -587 2 -588 3 -3 363 -2
362 510 0 510 0 0 90 0 90 -510 0 -510 0 0 345 0 345 570 0 570 0 0 90 0 90
-675 0 -675 0 2 -977z"/>
</g>
</svg>
